<svg
  viewBox="-2.4 -2.4 28.80 28.80"
  id="meteor-icon-kit__solid-bars-square"
  fill="none"
  xmlns="http://www.w3.org/2000/svg"
  transform="matrix(1, 0, 0, -1, 0, 0)rotate(0)"
  width="50" 
  height="50"
>
  <g id="SVGRepo_bgCarrier" stroke-width="0">
    <path
      transform="translate(-2.4, -2.4), scale(0.8999999999999999)"
      d="M16,30.846981960747925C18.046404112993024,31.108163872595842,20.13929589747568,30.340487366539072,21.924312263794207,29.306223204573524C23.652790757509308,28.304717899350614,24.780391845195123,26.589908103780253,26.032975435599425,25.033731658554608C27.237632191974555,23.537098233676502,28.453492879971535,22.0604885258287,29.186066944792003,20.284412866208584C29.946604329371528,18.440542052526602,30.74822619686979,16.449092791802695,30.38261591071792,14.488326153584044C30.018771847980986,12.537031765131937,28.251529285735202,11.216283003704248,27.18325584893263,9.54334422520229C26.15725173484513,7.936600099375314,25.45614802411067,6.162803180024554,24.168545871317324,4.756961146179389C22.733342604085276,3.1899638591605957,21.263073794640047,1.4346884370957218,19.220390685494927,0.8492530167366308C17.16889899937931,0.26129304769037387,14.955867192409148,0.8780679248398056,12.92529086468145,1.5346308240918685C10.98647307573822,2.161524682376198,9.084483817072973,3.0804917547206268,7.6989441612441585,4.574576822714782C6.377608441768951,5.999428114390216,6.316016293117064,8.167964066115985,5.260709572803961,9.799667780952788C4.142891114165964,11.52802646223894,1.8740245712942805,12.476788333073971,1.308227849643675,14.455832523439224C0.7438256649496572,16.429998901409004,1.5418568631904233,18.53907216484377,2.2067850556731035,20.481687209785875C2.866494467831682,22.409055373503115,3.635956684548495,24.411828855638397,5.17345824122504,25.748261985360415C6.682725447620844,27.060153142459704,8.90362720940109,27.02328623497059,10.71277649307737,27.875298428399013C12.562006015512283,28.746186262685818,13.97240834953116,30.588201077561667,16,30.846981960747925"
      fill="#7ed0ec"
      strokewidth="0"
    ></path>
  </g>
  <g id="SVGRepo_tracerCarrier" stroke-linecap="round" stroke-linejoin="round"></g>
  <g id="SVGRepo_iconCarrier">
    <path
      fill-rule="evenodd"
      clip-rule="evenodd"
      d="M3 0H21C22.6569 0 24 1.34315 24 3V21C24 22.6569 22.6569 24 21 24H3C1.34315 24 0 22.6569 0 21V3C0 1.34315 1.34315 0 3 0ZM7.5 8.5H16.5C17.3284 8.5 18 7.82843 18 7C18 6.17157 17.3284 5.5 16.5 5.5H7.5C6.67157 5.5 6 6.17157 6 7C6 7.82843 6.67157 8.5 7.5 8.5ZM7.5 13.5H16.5C17.3284 13.5 18 12.8284 18 12C18 11.1716 17.3284 10.5 16.5 10.5H7.5C6.67157 10.5 6 11.1716 6 12C6 12.8284 6.67157 13.5 7.5 13.5ZM7.5 18.5H16.5C17.3284 18.5 18 17.8284 18 17C18 16.1716 17.3284 15.5 16.5 15.5H7.5C6.67157 15.5 6 16.1716 6 17C6 17.8284 6.67157 18.5 7.5 18.5Z"
      fill="#4d6984"
    ></path>
  </g>
</svg>
